<svg width="147" height="51" viewBox="0 0 147 51" fill="none" xmlns="http://www.w3.org/2000/svg">
<path d="M69.2881 0C74.6184 0 79.3167 1.03307 83.3584 3.12695C87.445 5.1725 90.5965 8.15094 92.7939 12.0527L93.001 12.417C95.1097 16.1957 96.1514 20.5728 96.1514 25.5225C96.1513 30.6315 95.0414 35.1099 92.791 38.9258C90.5902 42.7372 87.4344 45.6676 83.3477 47.7109L83.3447 47.7129C79.3063 49.7077 74.6127 50.6914 69.2881 50.6914H52.4502V0H69.2881ZM123.313 0.140625C128.547 0.140762 133.221 1.43926 137.309 4.05078C141.459 6.62691 144.463 10.3044 146.314 15.0508L146.73 16.1182H135.65L135.436 15.6797C134.33 13.4273 132.837 11.7405 130.963 10.5869L130.583 10.3633C128.51 9.19717 126.094 8.60266 123.313 8.60254C120.454 8.60254 117.911 9.20355 115.667 10.3906L115.222 10.6357C112.877 11.9817 111.025 13.9129 109.666 16.4521L109.667 16.4531C108.355 18.9898 107.686 21.9656 107.686 25.4023C107.686 28.8389 108.355 31.814 109.667 34.3506C111.026 36.889 112.876 38.8449 115.222 40.2373L115.667 40.4824C117.911 41.6695 120.454 42.2705 123.313 42.2705C126.094 42.2704 128.51 41.6759 130.583 40.5098L130.963 40.2861C132.837 39.1325 134.33 37.4457 135.436 35.1934L135.65 34.7549H146.73L146.314 35.8223C144.464 40.5674 141.461 44.2433 137.312 46.8193L137.313 46.8203C133.224 49.388 128.549 50.663 123.313 50.6631C118.684 50.6631 114.437 49.5986 110.591 47.4619L110.584 47.458C106.741 45.2755 103.677 42.259 101.402 38.4199L101.398 38.4131C99.1627 34.5599 98.0518 30.2163 98.0518 25.4023C98.0518 20.5882 99.1625 16.244 101.398 12.3906L101.402 12.3848L101.838 11.6738C103.916 8.40592 106.598 5.78597 109.878 3.82227L110.591 3.41113C114.48 1.23014 118.726 0.140625 123.313 0.140625ZM26.6963 4.82227C30.753 1.85635 36.1292 -0.769551 41.3613 0.984375C41.3904 0.993495 41.6771 1.0871 41.8945 1.16504C42.1881 1.27025 42.5568 1.41405 42.9697 1.6084C43.7924 1.99561 44.8097 2.59148 45.8008 3.5127C47.9155 5.47837 49.4297 8.47562 49.4297 12.6318C49.4297 13.9226 49.4351 15.6172 49.4414 17.6152V17.6191C49.458 22.9276 49.4812 30.3776 49.4297 38.0918V50.4199H40.1299V43.7764C32.989 44.877 25.2469 44.6137 18.6914 40.8975C16.7337 39.7876 14.9609 38.419 13.3877 36.7832C13.1654 37.2442 12.9505 37.7035 12.7432 38.1602C10.4571 43.1943 9.29988 47.4921 9.2998 50.4199H0C6.96042e-05 45.5315 1.78385 39.8021 4.27539 34.3154C5.28403 32.0943 6.44188 29.8411 7.71289 27.6094C5.82181 22.684 4.81836 16.6266 4.81836 9.3623H14.1182C14.1182 12.1866 14.2848 14.6972 14.5879 16.9287C14.8606 19.9945 15.5848 24.0949 18.3145 28.0703L18.3135 28.0713C19.7794 30.3062 21.5043 31.8024 23.2773 32.8076C27.6804 35.3037 33.6398 35.5531 40.1494 34.3418C40.1739 28.0413 40.1555 22.1564 40.1416 17.7109V17.708C40.1364 16.0458 40.1323 14.584 40.1309 13.3779L40.168 8.91504C40.1747 8.08873 39.3243 7.53295 38.5703 7.87109L24.6318 14.1279C24.2281 14.3092 23.9663 14.7089 23.9619 15.1514L23.9102 20.4287C23.1331 21.3655 22.3606 22.3462 21.5977 23.3633C20.8486 24.3619 20.1159 25.3871 19.4053 26.4297C16.774 22.2577 16.4602 18.0371 16.2783 15.0693C19.562 11.0364 23.1308 7.4291 26.6963 4.82227ZM62.1201 42.5049H69.2881C74.8849 42.5049 79.0505 40.9942 81.9141 38.0869L82.1797 37.8096C84.8758 34.9118 86.2704 30.8512 86.2705 25.5225C86.2705 19.9736 84.7838 15.7478 81.9062 12.7373C79.0414 9.74025 74.8785 8.18652 69.2881 8.18652H62.1201V42.5049ZM37.7021 10.2812C38.0038 10.1458 38.3446 10.3686 38.3418 10.6992L38.2354 23.2773C38.2339 23.4544 38.1302 23.6148 37.9688 23.6875L26.4766 28.8643C26.1747 29.0003 25.8328 28.7774 25.8359 28.4463L25.959 15.8418C25.9609 15.6649 26.0661 15.5051 26.2275 15.4326L37.7021 10.2812Z" fill="white"/>
</svg>
